<?xml version="1.0" encoding="UTF-8" standalone="no"?>
<svg
   xmlns:dc="http://purl.org/dc/elements/1.1/"
   xmlns:cc="http://creativecommons.org/ns#"
   xmlns:rdf="http://www.w3.org/1999/02/22-rdf-syntax-ns#"
   xmlns:svg="http://www.w3.org/2000/svg"
   xmlns="http://www.w3.org/2000/svg"
   xmlns:sodipodi="http://sodipodi.sourceforge.net/DTD/sodipodi-0.dtd"
   xmlns:inkscape="http://www.inkscape.org/namespaces/inkscape"
   width="32"
   height="32"
   viewBox="0 0 32 32"
   id="svg2"
   version="1.1"
   inkscape:version="0.91 r13725"
   sodipodi:docname="about-icon.svg">
  <metadata
     id="metadata10">
    <rdf:RDF>
      <cc:Work
         rdf:about="">
        <dc:format>image/svg+xml</dc:format>
        <dc:type
           rdf:resource="http://purl.org/dc/dcmitype/StillImage" />
        <dc:title></dc:title>
      </cc:Work>
    </rdf:RDF>
  </metadata>
  <defs
     id="defs8" />
  <sodipodi:namedview
     pagecolor="#ffffff"
     bordercolor="#666666"
     borderopacity="1"
     objecttolerance="10"
     gridtolerance="10"
     guidetolerance="10"
     inkscape:pageopacity="0"
     inkscape:pageshadow="2"
     inkscape:window-width="1366"
     inkscape:window-height="706"
     id="namedview6"
     showgrid="false"
     fit-margin-top="0"
     fit-margin-left="0"
     fit-margin-right="0"
     fit-margin-bottom="0"
     inkscape:zoom="2.36"
     inkscape:cx="-0.23315094"
     inkscape:cy="-18.751264"
     inkscape:window-x="0"
     inkscape:window-y="0"
     inkscape:window-maximized="1"
     inkscape:current-layer="svg2" />
  <path
     d="M 16.000163,0 C 7.163284,0 0,7.163138 0,15.999837 0,24.836536 7.163284,32 16.000163,32 24.837042,32 32,24.836536 32,15.999837 32,7.163138 24.837042,0 16.000163,0 Z m 2.791605,25.461514 c 0,1.434388 -1.240206,2.596691 -2.769773,2.596691 -1.529566,0 -2.769773,-1.162303 -2.769773,-2.596691 l 0,-11.913691 c 0,-1.434061 1.240207,-2.596691 2.769773,-2.596691 1.529567,0 2.769773,1.16263 2.769773,2.596691 l 0,11.913691 z M 16.000163,9.880393 c -1.64492,0 -2.978646,-1.333374 -2.978646,-2.978911 0,-1.645212 1.3334,-2.9785862 2.978646,-2.9785862 1.645571,0 2.978972,1.3333742 2.978972,2.9785862 -3.2e-4,1.645537 -1.333727,2.978911 -2.978972,2.978911 z"
     id="path4"
     style="fill:#25d366;fill-opacity:1"
     inkscape:connector-curvature="0" />
</svg>
