<?xml version="1.0" encoding="UTF-8" standalone="no"?>
<svg
   xmlns:dc="http://purl.org/dc/elements/1.1/"
   xmlns:cc="http://creativecommons.org/ns#"
   xmlns:rdf="http://www.w3.org/1999/02/22-rdf-syntax-ns#"
   xmlns:svg="http://www.w3.org/2000/svg"
   xmlns="http://www.w3.org/2000/svg"
   xmlns:sodipodi="http://sodipodi.sourceforge.net/DTD/sodipodi-0.dtd"
   xmlns:inkscape="http://www.inkscape.org/namespaces/inkscape"
   width="120"
   height="120"
   viewBox="0 0 120 120"
   id="svg2"
   version="1.1"
   inkscape:version="0.91 r13725"
   sodipodi:docname="about-icon.svg">
  <metadata
     id="metadata10">
    <rdf:RDF>
      <cc:Work
         rdf:about="">
        <dc:format>image/svg+xml</dc:format>
        <dc:type
           rdf:resource="http://purl.org/dc/dcmitype/StillImage" />
        <dc:title></dc:title>
      </cc:Work>
    </rdf:RDF>
  </metadata>
  <defs
     id="defs8" />
  <sodipodi:namedview
     pagecolor="#ffffff"
     bordercolor="#666666"
     borderopacity="1"
     objecttolerance="10"
     gridtolerance="10"
     guidetolerance="10"
     inkscape:pageopacity="0"
     inkscape:pageshadow="2"
     inkscape:window-width="1366"
     inkscape:window-height="706"
     id="namedview6"
     showgrid="false"
     fit-margin-top="0"
     fit-margin-left="0"
     fit-margin-right="0"
     fit-margin-bottom="0"
     inkscape:zoom="2.36"
     inkscape:cx="-17.33928"
     inkscape:cy="59.9945"
     inkscape:window-x="0"
     inkscape:window-y="0"
     inkscape:window-maximized="1"
     inkscape:current-layer="svg2" />
  <path
     d="M 60.000611,0 C 26.862316,0 0,26.861769 0,59.999389 0,93.137009 26.862316,120 60.000611,120 93.138906,120 120,93.137009 120,59.999389 120,26.861769 93.138906,0 60.000611,0 Z M 70.46913,95.480678 c 0,5.378952 -4.650774,9.737592 -10.386648,9.737592 -5.735873,0 -10.386648,-4.35864 -10.386648,-9.737592 l 0,-44.67634 c 0,-5.37773 4.650775,-9.73759 10.386648,-9.73759 5.735874,0 10.386648,4.35986 10.386648,9.73759 l 0,44.67634 z M 60.000611,37.051474 c -6.168447,0 -11.169924,-5.000153 -11.169924,-11.170918 0,-6.169543 5.000255,-11.169696 11.169924,-11.169696 6.170891,0 11.171145,5.000153 11.171145,11.169696 -0.0012,6.170765 -5.001476,11.170918 -11.171145,11.170918 z"
     id="path4"
     style="fill:#25d366;fill-opacity:1"
     inkscape:connector-curvature="0" />
</svg>
