<?xml version="1.0" encoding="UTF-8" standalone="no"?>
<!-- Generator: Adobe Illustrator 19.2.0, SVG Export Plug-In . SVG Version: 6.00 Build 0)  -->

<svg
   xmlns:dc="http://purl.org/dc/elements/1.1/"
   xmlns:cc="http://creativecommons.org/ns#"
   xmlns:rdf="http://www.w3.org/1999/02/22-rdf-syntax-ns#"
   xmlns:svg="http://www.w3.org/2000/svg"
   xmlns="http://www.w3.org/2000/svg"
   xmlns:sodipodi="http://sodipodi.sourceforge.net/DTD/sodipodi-0.dtd"
   xmlns:inkscape="http://www.inkscape.org/namespaces/inkscape"
   version="1.1"
   id="Layer_1"
   x="0px"
   y="0px"
   width="120"
   height="120"
   viewBox="0 0 120 120"
   enable-background="new 0 0 94 94"
   xml:space="preserve"
   inkscape:version="0.91 r13725"
   sodipodi:docname="browser-icon.svg"><metadata
     id="metadata4474"><rdf:RDF><cc:Work
         rdf:about=""><dc:format>image/svg+xml</dc:format><dc:type
           rdf:resource="http://purl.org/dc/dcmitype/StillImage" /><dc:title></dc:title></cc:Work></rdf:RDF></metadata><defs
     id="defs4472" /><sodipodi:namedview
     pagecolor="#ffffff"
     bordercolor="#666666"
     borderopacity="1"
     objecttolerance="10"
     gridtolerance="10"
     guidetolerance="10"
     inkscape:pageopacity="0"
     inkscape:pageshadow="2"
     inkscape:window-width="1366"
     inkscape:window-height="706"
     id="namedview4470"
     showgrid="false"
     fit-margin-top="0"
     fit-margin-left="0"
     fit-margin-right="0"
     fit-margin-bottom="0"
     inkscape:zoom="2.5106383"
     inkscape:cx="-12.292373"
     inkscape:cy="60"
     inkscape:window-x="0"
     inkscape:window-y="0"
     inkscape:window-maximized="1"
     inkscape:current-layer="g4454" /><g
     id="g4454"
     transform="translate(13,13)"><circle
       cx="47"
       cy="47"
       r="60"
       id="circle4456"
       style="fill:none" /><g
       id="g4458"
       transform="matrix(1.2765957,0,0,1.2765957,-13,-13)"><path
         d="M 47,92.979 C 35.221,92.979 23.441,88.495 14.474,79.528 -3.461,61.591 -3.461,32.409 14.472,14.474 32.41,-3.463 61.592,-3.461 79.526,14.473 97.461,32.409 97.461,61.592 79.528,79.527 l -0.002,0.001 C 70.559,88.495 58.779,92.979 47,92.979 Z"
         id="path4460"
         style="fill:#075e54;fill-opacity:1"
         inkscape:connector-curvature="0" /></g><path
       d="m 105.7234,47 c 0,-32.431915 -26.291485,-58.723404 -58.7234,-58.723404 -16.216596,0 -30.897447,6.5731912 -41.5238298,17.1995742 L 88.52383,88.52383 C 99.150213,77.897447 105.7234,63.216596 105.7234,47 Z"
       id="path4462"
       style="fill:#128c7e;fill-opacity:1"
       inkscape:connector-curvature="0" /><g
       id="g4464"
       transform="matrix(1.2765957,0,0,1.2765957,-13,-13)"><path
         d="M 47,65 C 42.192,65 37.672,63.127 34.272,59.728 27.254,52.709 27.254,41.29 34.272,34.272 37.672,30.873 42.192,29 47,29 c 4.808,0 9.328,1.873 12.728,5.272 7.018,7.019 7.018,18.438 0,25.456 C 56.328,63.127 51.808,65 47,65 Z"
         id="path4466"
         style="fill:#25d366;fill-opacity:1"
         inkscape:connector-curvature="0" /><path
         d="M 62.248,59.919 C 68.919,52.061 68.56,40.275 61.143,32.858 57.237,28.953 52.118,27 47,27 c -5.118,0 -10.237,1.953 -14.142,5.858 -7.81,7.81 -7.81,20.474 0,28.284 C 36.763,65.047 41.882,67 47,67 c 4.379,0 8.752,-1.441 12.372,-4.3 L 77.88,81.209 c 0.989,-0.895 1.935,-1.837 2.843,-2.814 L 62.248,59.919 Z M 35.686,58.314 c -6.238,-6.238 -6.238,-16.389 0,-22.627 C 38.708,32.664 42.726,31 47,31 c 4.274,0 8.292,1.664 11.314,4.686 6.238,6.238 6.238,16.389 0,22.627 C 55.292,61.336 51.274,63 47,63 42.726,63 38.708,61.336 35.686,58.314 Z"
         id="path4468"
         inkscape:connector-curvature="0"
         style="fill:#ffffff" /></g></g></svg>