<?xml version="1.0" encoding="UTF-8" standalone="no"?>
<svg
   xmlns:dc="http://purl.org/dc/elements/1.1/"
   xmlns:cc="http://creativecommons.org/ns#"
   xmlns:rdf="http://www.w3.org/1999/02/22-rdf-syntax-ns#"
   xmlns:svg="http://www.w3.org/2000/svg"
   xmlns="http://www.w3.org/2000/svg"
   xmlns:sodipodi="http://sodipodi.sourceforge.net/DTD/sodipodi-0.dtd"
   xmlns:inkscape="http://www.inkscape.org/namespaces/inkscape"
   height="32"
   id="Layer_1"
   version="1.1"
   viewBox="0 0 32.000002 32"
   width="32"
   xml:space="preserve"
   inkscape:version="0.91 r13725"
   sodipodi:docname="settings-icon.svg"><metadata
     id="metadata9"><rdf:RDF><cc:Work
         rdf:about=""><dc:format>image/svg+xml</dc:format><dc:type
           rdf:resource="http://purl.org/dc/dcmitype/StillImage" /><dc:title></dc:title></cc:Work></rdf:RDF></metadata><defs
     id="defs7" /><sodipodi:namedview
     pagecolor="#ffffff"
     bordercolor="#666666"
     borderopacity="1"
     objecttolerance="10"
     gridtolerance="10"
     guidetolerance="10"
     inkscape:pageopacity="0"
     inkscape:pageshadow="2"
     inkscape:window-width="1366"
     inkscape:window-height="706"
     id="namedview5"
     showgrid="false"
     inkscape:zoom="3.0958127"
     inkscape:cx="-71.046712"
     inkscape:cy="16.000501"
     inkscape:window-x="0"
     inkscape:window-y="0"
     inkscape:window-maximized="1"
     inkscape:current-layer="Layer_1"
     fit-margin-top="0"
     fit-margin-left="0"
     fit-margin-right="0"
     fit-margin-bottom="0" /><path
     d="M 32.000002,15.828523 30.475238,8.9733282 26.434981,8.5128452 25.407422,7.1905832 25.870253,3.0495942 19.692624,-3.8146975e-6 16.82479,2.9501102 l -1.649577,0 L 12.30656,-3.8146975e-6 6.12975,3.0500142 6.592581,7.1910032 5.565022,8.5132652 1.524765,8.9737482 0,15.828523 l 3.442792,2.212585 0.367482,1.64884 -2.168472,3.524773 4.27638,5.498092 3.832372,-1.382289 1.486298,0.734171 1.334885,3.935303 6.85612,0 1.334885,-3.935303 1.486298,-0.734171 3.832372,1.382289 4.276378,-5.498092 -2.168471,-3.524773 0.367072,-1.64884 3.443611,-2.212585 z m -4.650409,7.215353 -2.099312,2.699094 -3.148152,-1.135466 -3.32289,1.641703 -1.096718,3.231778 -3.365039,0 L 13.220764,26.249207 9.897874,24.607504 6.749723,25.74297 4.650409,23.043876 6.431756,20.148752 5.609218,16.461529 2.782307,14.644364 3.530775,11.279101 6.849164,10.900893 9.147769,7.9432232 8.767191,4.5427012 l 3.032342,-1.497305 2.356306,2.423308 3.687916,0 2.355897,-2.423308 3.032751,1.496885 -0.380578,3.400522 2.298605,2.9576698 3.318388,0.378209 0.74847,3.365262 -2.827731,1.817166 -0.820901,3.687642 1.780937,2.895124 z M 16.000206,9.9010112 c -3.390821,0 -6.138343,2.8178868 -6.138343,6.2964858 0,3.478598 2.747522,6.296486 6.138343,6.296486 3.390821,0 6.138344,-2.817888 6.138344,-6.296486 0,-3.478599 -2.747523,-6.2964858 -6.138344,-6.2964858 z m 0,10.7040258 c -2.3694,0 -4.29684,-1.977097 -4.29684,-4.40754 0,-2.430444 1.92744,-4.407541 4.29684,-4.407541 2.369401,0 4.296841,1.977097 4.296841,4.407541 0,2.430443 -1.92744,4.40754 -4.296841,4.40754 z"
     style="fill:#25d366;fill-opacity:1"
     id="path3"
     inkscape:connector-curvature="0" /><path
     style="fill:#075e54;fill-opacity:1;stroke:#128c7e;stroke-width:0.66938937;stroke-miterlimit:4;stroke-dasharray:none;stroke-opacity:1"
     d="m 14.211129,28.982669 c -0.09676,-0.242371 -0.342322,-0.96952 -0.545687,-1.61589 l -0.369754,-1.17522 -1.69813,-0.818355 -1.69813,-0.818355 -1.51532,0.535966 c -0.833426,0.294781 -1.544589,0.535966 -1.580361,0.535966 -0.03577,0 -0.517543,-0.583037 -1.070601,-1.295637 L 4.727584,23.035506 5.609006,21.603728 C 6.212979,20.622637 6.470032,20.080824 6.425631,19.882456 6.389991,19.723234 6.201443,18.878004 6.006633,18.004166 L 5.652431,16.415371 4.441636,15.643498 c -1.730955,-1.103471 -1.61649,-0.885722 -1.284028,-2.442634 0.42455,-1.988155 0.352154,-1.89067 1.48224,-1.99593 2.38532,-0.222178 2.107556,-0.07937 3.42305,-1.7599548 0.826694,-1.056131 1.157542,-1.582026 1.118288,-1.777559 -0.09338,-0.465155 -0.353413,-3.082538 -0.308444,-3.104668 0.02315,-0.01139 0.690953,-0.345425 1.484005,-0.742291 l 1.441911,-0.721577 1.204291,1.230181 1.204291,1.23018 1.850875,0 1.850876,0 1.167004,-1.202641 1.167003,-1.20264 1.454911,0.694172 1.454913,0.694174 -0.08305,0.813549 c -0.04568,0.447451 -0.115824,1.240661 -0.155881,1.762688 l -0.07283,0.949141 1.133724,1.443119 1.133726,1.4431198 1.590382,0.170657 c 0.874707,0.09386 1.632566,0.237667 1.684126,0.319569 0.05156,0.0819 0.246062,0.828336 0.432219,1.658744 l 0.33847,1.509831 -1.405958,0.896453 -1.40596,0.896453 -0.363145,1.66146 c -0.19973,0.913802 -0.387978,1.754581 -0.418326,1.868397 -0.03035,0.113816 0.331246,0.844769 0.803546,1.624342 0.4723,0.779573 0.858393,1.449151 0.857991,1.487955 -2.67e-4,0.0388 -0.33403,0.497664 -0.74139,1.019691 -0.407358,0.522027 -0.85314,1.094636 -0.990626,1.272466 l -0.249974,0.323325 -1.571888,-0.562612 -1.571887,-0.562614 -1.6885,0.849449 -1.688501,0.849449 -0.539991,1.592511 -0.539988,1.592508 -1.626023,5.47e-4 -1.626023,5.47e-4 -0.175932,-0.440671 0,2.5e-5 z m 3.614233,-6.731378 c 2.050117,-0.654507 3.615632,-2.372129 4.176982,-4.58282 0.514452,-2.025998 -0.03573,-4.140283 -1.499367,-5.761917 -1.238081,-1.371727 -2.669708,-2.0083818 -4.516194,-2.0083818 -3.091086,0 -5.570692,2.1839148 -6.100431,5.3729578 -0.490066,2.950215 1.380929,6.043323 4.218361,6.973748 1.029993,0.337744 2.67394,0.340578 3.720649,0.0064 z"
     id="path4137"
     inkscape:connector-curvature="0" /></svg>