<?xml version="1.0" encoding="UTF-8" standalone="no"?>
<svg
   xmlns:dc="http://purl.org/dc/elements/1.1/"
   xmlns:cc="http://creativecommons.org/ns#"
   xmlns:rdf="http://www.w3.org/1999/02/22-rdf-syntax-ns#"
   xmlns:svg="http://www.w3.org/2000/svg"
   xmlns="http://www.w3.org/2000/svg"
   xmlns:sodipodi="http://sodipodi.sourceforge.net/DTD/sodipodi-0.dtd"
   xmlns:inkscape="http://www.inkscape.org/namespaces/inkscape"
   height="116.986"
   id="Layer_1"
   version="1.1"
   viewBox="0 0 119.99993 116.986"
   width="119.99992"
   xml:space="preserve"
   inkscape:version="0.91 r13725"
   sodipodi:docname="settings-icon.svg"><metadata
     id="metadata9"><rdf:RDF><cc:Work
         rdf:about=""><dc:format>image/svg+xml</dc:format><dc:type
           rdf:resource="http://purl.org/dc/dcmitype/StillImage" /><dc:title></dc:title></cc:Work></rdf:RDF></metadata><defs
     id="defs7" /><sodipodi:namedview
     pagecolor="#ffffff"
     bordercolor="#666666"
     borderopacity="1"
     objecttolerance="10"
     gridtolerance="10"
     guidetolerance="10"
     inkscape:pageopacity="0"
     inkscape:pageshadow="2"
     inkscape:window-width="1366"
     inkscape:window-height="706"
     id="namedview5"
     showgrid="false"
     inkscape:zoom="3.0958127"
     inkscape:cx="31.580822"
     inkscape:cy="58.493501"
     inkscape:window-x="0"
     inkscape:window-y="0"
     inkscape:window-maximized="1"
     inkscape:current-layer="Layer_1"
     fit-margin-top="0"
     fit-margin-left="0"
     fit-margin-right="0"
     fit-margin-bottom="0" /><path
     d="M 119.99992,57.866122 114.28206,32.804818 99.131106,31.121379 95.277764,26.287437 97.013379,11.148758 73.847288,0 l -10.75437,10.785062 -6.185912,0 L 46.149567,0 22.986545,11.150293 24.72216,26.288972 20.868818,31.122914 5.7178626,32.806353 0,57.866122 l 12.910461,8.088796 1.378057,6.027849 -8.1317642,12.885909 16.0364112,20.099994 14.371386,-5.053391 5.573612,2.683991 5.005815,14.38673 25.710433,0 5.005816,-14.38673 5.573612,-2.683991 14.371386,5.053391 16.036405,-20.099994 -8.13176,-12.885909 1.37652,-6.027849 12.91353,-8.088796 z M 102.5609,84.2441 l -7.872417,9.86738 -11.80556,-4.151052 -12.460829,6.001761 -4.112687,11.814771 -12.61889,0 L 49.57783,95.962189 37.117001,89.960428 25.311441,94.11148 17.439021,84.2441 24.119068,73.660068 21.034553,60.180276 10.433642,53.537059 l 2.806755,-12.302767 12.443948,-1.38266 8.619762,-10.812685 -1.427163,-12.431671 11.371273,-5.473864 8.836139,8.859158 13.829678,0 8.834604,-8.859158 11.372808,5.47233 -1.427164,12.431671 8.619763,10.812684 12.443945,1.382661 2.80676,12.302766 L 98.960767,60.178741 95.88239,73.660068 102.5609,84.2441 Z M 60.000729,36.196251 c -12.715569,0 -23.018771,10.301667 -23.018771,23.018771 0,12.717104 10.303202,23.018772 23.018771,23.018772 12.71557,0 23.018772,-10.301668 23.018772,-23.018772 0,-12.717104 -10.303202,-23.018771 -23.018772,-23.018771 z m 0,39.131911 c -8.885245,0 -16.11314,-7.227894 -16.11314,-16.11314 0,-8.885246 7.227895,-16.11314 16.11314,-16.11314 8.885246,0 16.11314,7.227894 16.11314,16.11314 0,8.885246 -7.227894,16.11314 -16.11314,16.11314 z"
     style="fill:#25d366;fill-opacity:1"
     id="path3"
     inkscape:connector-curvature="0" /><path
     style="fill:#075e54;fill-opacity:1;stroke:#128c7e;stroke-width:2.47848463;stroke-miterlimit:4;stroke-dasharray:none;stroke-opacity:1"
     d="m 53.291694,105.95521 c -0.362861,-0.88606 -1.283706,-3.54438 -2.046323,-5.90739 l -1.386579,-4.296383 -6.367982,-2.99175 -6.367982,-2.991755 -5.682447,1.959392 c -3.125346,1.077665 -5.792204,1.95939 -5.926347,1.95939 -0.134153,0 -1.940785,-2.131472 -4.014754,-4.736606 L 17.728427,84.2135 21.033756,78.97919 c 2.264899,-3.586685 3.228845,-5.567451 3.062342,-6.292649 -0.133647,-0.582087 -0.840702,-3.672089 -1.571242,-6.866676 L 21.196599,60.01153 16.656121,57.189707 c -6.491073,-4.034082 -6.06183,-3.238033 -4.815099,-8.929812 1.592059,-7.268321 1.320574,-6.911935 5.558396,-7.296747 8.944944,-0.81224 7.903329,-0.290145 12.836426,-6.434062 3.100102,-3.861017 4.34078,-5.78359 4.193578,-6.498425 -0.350176,-1.700518 -1.325297,-11.269177 -1.156663,-11.350083 0.08681,-0.04165 2.591071,-1.262806 5.565012,-2.713676 l 5.407163,-2.63795 4.516089,4.497311 4.516087,4.497309 6.940778,0 6.940779,0 4.376261,-4.39663 4.37626,-4.396629 5.455911,2.537766 5.455919,2.537767 -0.311432,2.974182 c -0.171289,1.635799 -0.434339,4.535626 -0.584555,6.444059 l -0.27313,3.469879 4.251464,5.275774 4.251469,5.275774 5.963926,0.62389 c 3.28015,0.34314 6.12212,0.868868 6.31547,1.168286 0.19336,0.299417 0.92273,3.028242 1.62082,6.064056 l 1.26926,5.51966 -5.27234,3.277263 -5.272344,3.277262 -1.361794,6.073986 c -0.748988,3.34069 -1.454914,6.414421 -1.568722,6.830511 -0.113815,0.416091 1.242172,3.088318 3.013298,5.93829 1.771122,2.84997 3.218972,5.297824 3.217462,5.439683 -0.001,0.141857 -1.25261,1.819366 -2.780209,3.727799 -1.527593,1.908432 -3.199272,4.001785 -3.714846,4.651897 l -0.937402,1.182014 -5.894576,-2.056804 -5.89457,-2.05681 -6.331873,3.105427 -6.331873,3.105427 -2.024963,5.821919 -2.024955,5.82191 -6.097583,0.002 -6.097579,0.002 -0.659747,-1.61101 0,9e-5 z M 66.845059,81.346558 c 7.687932,-2.392754 13.55861,-8.672059 15.66367,-16.75393 1.929193,-7.40667 -0.133984,-15.136097 -5.62262,-21.064486 -4.642801,-5.014778 -10.011398,-7.342268 -16.935717,-7.342268 -11.591565,0 -20.890079,7.983981 -22.876598,19.642524 -1.837749,10.785434 5.178479,22.093257 15.81884,25.494713 3.862472,1.234732 10.027269,1.245092 13.952425,0.02345 z"
     id="path4137"
     inkscape:connector-curvature="0" /></svg>